<?xml version="1.0" encoding="UTF-8"?>
<svg xmlns="http://www.w3.org/2000/svg" width="980" height="720" viewBox="0 0 980 720" role="img" aria-label="LMSGEN From brief to course">
  <defs>
    <linearGradient id="bg" x1="0" y1="0" x2="1" y2="1"><stop offset="0" stop-color="#071614"/><stop offset="1" stop-color="#0A0F0E"/></linearGradient>
    <linearGradient id="teal" x1="0" y1="0" x2="1" y2="0"><stop offset="0" stop-color="#4FC9BF"/><stop offset="1" stop-color="#9BE8E1"/></linearGradient>
  </defs>
  <rect width="980" height="720" rx="28" fill="url(#bg)"/>
  <rect x="24" y="24" width="932" height="672" rx="18" fill="#10211F" stroke="#4FC9BF" stroke-opacity="0.28"/>
  <rect x="24" y="24" width="932" height="46" rx="18" fill="#16312E"/>
  <rect x="24" y="52" width="932" height="18" fill="#16312E"/>
  <circle cx="48" cy="47" r="6" fill="#FF6B6B"/>
  <circle cx="68" cy="47" r="6" fill="#F7D774"/>
  <circle cx="88" cy="47" r="6" fill="#4FC9BF"/>
  <text x="116" y="52" fill="#9BE8E1" font-family="Inter,Arial,sans-serif" font-size="13" font-weight="600">LMSGEN  From brief to course</text>
  <rect x="70" y="130" width="200" height="260" rx="16" fill="#132826" stroke="#4FC9BF" stroke-opacity="0.25"/>
  <text x="92" y="168" fill="#9BE8E1" font-family="Inter,Arial,sans-serif" font-size="13">policy.pdf</text>
  <rect x="92" y="188" width="156" height="8" rx="4" fill="#2A4440"/>
  <rect x="92" y="206" width="130" height="8" rx="4" fill="#2A4440"/>
  <rect x="92" y="224" width="148" height="8" rx="4" fill="#2A4440"/>
  <rect x="92" y="260" width="156" height="90" rx="10" fill="#0C1A18"/>
  <text x="108" y="312" fill="#7BDCD3" font-family="Inter,Arial,sans-serif" font-size="12">18 pages</text>
  <rect x="70" y="410" width="200" height="160" rx="16" fill="#132826"/>
  <text x="92" y="450" fill="#EDF4F2" font-family="Inter,Arial,sans-serif" font-size="13">brief.docx</text>
  <circle cx="370" cy="360" r="54" fill="#16312E" stroke="#4FC9BF" stroke-width="3"/>
  <text x="346" y="356" fill="#EDF4F2" font-family="Inter,Arial,sans-serif" font-size="16" font-weight="700">AI</text>
  <text x="338" y="378" fill="#7BDCD3" font-family="Inter,Arial,sans-serif" font-size="11">generate</text>
  <path d="M270 240 C320 240, 320 280, 370 306" stroke="#4FC9BF" stroke-width="2" fill="none" stroke-dasharray="5 6"/>
  <path d="M270 470 C320 470, 320 430, 370 414" stroke="#4FC9BF" stroke-width="2" fill="none" stroke-dasharray="5 6"/>
  <path d="M424 360 H500" stroke="#4FC9BF" stroke-width="2" fill="none"/>
  <rect x="500" y="130" width="430" height="500" rx="18" fill="#0C1A18" stroke="#4FC9BF" stroke-opacity="0.28"/>
  <text x="524" y="170" fill="#7BDCD3" font-family="Inter,Arial,sans-serif" font-size="13">GENERATED OUTLINE</text>
  <rect x="524" y="196" width="382" height="52" rx="10" fill="#16312E"/>
  <text x="544" y="228" fill="#EDF4F2" font-family="Inter,Arial,sans-serif" font-size="15">1  Why this policy exists</text>
  <rect x="524" y="260" width="382" height="52" rx="10" fill="#132826"/>
  <text x="544" y="292" fill="#EDF4F2" font-family="Inter,Arial,sans-serif" font-size="15">2  Risky everyday actions</text>
  <rect x="524" y="324" width="382" height="52" rx="10" fill="#132826"/>
  <text x="544" y="356" fill="#EDF4F2" font-family="Inter,Arial,sans-serif" font-size="15">3  Knowledge check</text>
  <rect x="524" y="388" width="382" height="52" rx="10" fill="#132826"/>
  <text x="544" y="420" fill="#EDF4F2" font-family="Inter,Arial,sans-serif" font-size="15">4  Apply at work</text>
  <rect x="524" y="470" width="382" height="44" rx="22" fill="url(#teal)"/>
  <text x="630" y="498" fill="#0A0F0E" font-family="Inter,Arial,sans-serif" font-size="15" font-weight="700">Generate with AI</text>
</svg>
