<?xml version="1.0" encoding="UTF-8"?>
<svg xmlns="http://www.w3.org/2000/svg" width="900" height="620" viewBox="0 0 900 620" role="img" aria-label="LEARNER MGMT">
  <defs>
    <linearGradient id="bg18" x1="0" y1="0" x2="1" y2="1">
      <stop offset="0" stop-color="#06191c"/>
      <stop offset="1" stop-color="#0A0F0E"/>
    </linearGradient>
    <linearGradient id="teal18" x1="0" y1="0" x2="1" y2="0">
      <stop offset="0" stop-color="#4FC9BF"/>
      <stop offset="1" stop-color="#7BDCD3"/>
    </linearGradient>
  </defs>
  <rect width="900" height="620" rx="24" fill="url(#bg18)"/>
  <rect x="18" y="18" width="864" height="584" rx="18" fill="#10211F" stroke="#4FC9BF" stroke-opacity="0.22"/>
  <text x="48" y="64" fill="#7BDCD3" font-family="Inter,Arial,sans-serif" font-size="16" font-weight="700">LEARNER MGMT</text>
  <text x="48" y="96" fill="#EDF4F2" font-family="Inter,Arial,sans-serif" font-size="26" font-weight="700">Access and reports.</text>
  <rect x="56" y="150" width="788" height="56" rx="12" fill="#0A0F0E"/>
  <text x="80" y="186" fill="#EDF4F2" font-family="Inter,Arial,sans-serif" font-size="18">Roster  ·  Completion  ·  Export</text>
  <rect x="56" y="226" width="250" height="280" rx="16" fill="#0E1C1A"/>
  <text x="80" y="280" fill="#7BDCD3" font-family="Inter,Arial,sans-serif" font-size="16">Active</text>
  <text x="80" y="330" fill="#EDF4F2" font-family="Inter,Arial,sans-serif" font-size="36" font-weight="700">312</text>
  <rect x="324" y="226" width="250" height="280" rx="16" fill="#0E1C1A"/>
  <text x="348" y="280" fill="#7BDCD3" font-family="Inter,Arial,sans-serif" font-size="16">Completed</text>
  <text x="348" y="330" fill="#EDF4F2" font-family="Inter,Arial,sans-serif" font-size="36" font-weight="700">81%</text>
  <rect x="348" y="360" width="200" height="12" rx="6" fill="#1E3330"/>
  <rect x="348" y="360" width="162" height="12" rx="6" fill="#4FC9BF"/>
  <rect x="592" y="226" width="252" height="280" rx="16" fill="#0E1C1A"/>
  <text x="616" y="280" fill="#7BDCD3" font-family="Inter,Arial,sans-serif" font-size="16">Live quiz</text>
  <text x="616" y="330" fill="#EDF4F2" font-family="Inter,Arial,sans-serif" font-size="36" font-weight="700">24</text>
  <text x="616" y="372" fill="#EDF4F2" font-family="Inter,Arial,sans-serif" font-size="16">in session now</text>
</svg>
