<svg width="150" height="41" viewBox="0 0 150 41" fill="none" xmlns="http://www.w3.org/2000/svg">
<path fill-rule="evenodd" clip-rule="evenodd" d="M3 36.668H36.168V3.5H3V36.668ZM24.272 6.04266C30.1292 7.97235 34.3746 13.5117 34.3973 20.0954C34.42 26.5655 30.2655 32.1049 24.272 34.1481V6.04266ZM19.5727 5.29348C20.6397 5.29348 21.7521 5.4297 22.7056 5.61132C22.7056 13.1257 15.4409 19.3008 7.9264 19.3008H4.79348C5.31563 11.6047 11.695 5.29348 19.5727 5.29348ZM7.9491 20.8673C15.4409 20.8673 22.7056 27.0423 22.7056 34.5567C21.7748 34.7384 20.5715 34.8973 19.5727 34.8973C11.6723 34.8973 5.08861 28.5407 4.79348 20.8673H7.9491Z" fill="black"/>
<path d="M47.2674 23.0011V20.9125H54.1689V18.2563H47.2674V14.3742H54.6003V11.6953H44.4297V22.8875C44.4297 25.7027 45.6329 27.655 48.448 28.041C48.5161 28.0637 48.5615 28.0637 48.6068 28.0637H48.6523C48.9474 28.0864 49.2426 28.1091 49.5377 28.1091H54.7592V25.4529H49.5604C48.7204 25.4529 47.2674 25.0215 47.2674 23.0011Z" fill="black"/>
<path d="M56.8281 28.1091V11.6953H59.6432V28.1091H56.8281Z" fill="black"/>
<path fill-rule="evenodd" clip-rule="evenodd" d="M67.7471 15.875C64.1828 15.875 61.5039 18.3269 61.5039 22.1636V22.2544C61.5039 26.0003 64.092 28.4067 67.8152 28.4067C69.6087 28.4067 71.2886 27.9073 72.8324 26.2727L71.1297 24.6154C70.2216 25.5235 69.3589 25.9776 67.9059 25.9776C65.7946 25.9776 64.4098 24.7516 64.319 22.8447H73.6042C73.6496 22.3679 73.6496 21.8457 73.6496 21.8457C73.6496 18.5539 71.3113 15.875 67.7471 15.875ZM64.3871 20.8922C64.5007 19.4393 65.9763 18.2814 67.7471 18.2814C69.4043 18.2814 70.7437 19.462 70.7437 20.8922H64.3871Z" fill="black"/>
<path d="M84.6131 19.6867C83.8185 18.8694 82.8651 18.3927 81.5937 18.3927C79.5051 18.3927 77.9159 19.9365 77.9159 22.0932C77.9159 24.2499 79.5051 25.8391 81.5937 25.8391C82.8651 25.8391 83.8185 25.3623 84.6131 24.5451L86.3612 26.3613C84.9763 27.8369 83.3417 28.4271 81.571 28.4271C77.9613 28.4271 75.0781 25.7482 75.0781 22.1159C75.0781 18.4835 77.984 15.8047 81.571 15.8047C83.3644 15.8047 84.9991 16.3949 86.3612 17.8705L84.6131 19.6867Z" fill="black"/>
<path d="M90.948 23.003V18.8031H93.5133V16.2377H90.948V11.6973H88.1328V23.1619C88.2238 25.8181 89.4274 27.657 92.1516 28.0203C92.2196 28.043 92.2647 28.043 92.3106 28.043H92.3556C92.6505 28.0656 92.9455 28.0883 93.2413 28.0883H93.5363V25.4322H93.2413C92.3786 25.4549 90.948 25.0235 90.948 23.003Z" fill="black"/>
<path d="M98.6907 16.2368V18.0076C99.2576 16.7817 100.529 16.0098 102.232 16.0098C102.527 16.0098 102.959 16.0552 103.072 16.0779V18.8022C102.732 18.734 102.346 18.6886 101.892 18.6886C99.9393 18.6886 98.6907 19.9146 98.6907 21.8669V28.1101H95.8984V16.2368H98.6907Z" fill="black"/>
<path fill-rule="evenodd" clip-rule="evenodd" d="M109.994 15.8965C106.384 15.8965 103.523 18.6207 103.523 22.185C103.523 25.7493 106.407 28.4735 109.994 28.4735C113.581 28.4735 116.464 25.7493 116.464 22.185C116.464 18.6207 113.581 15.8965 109.994 15.8965ZM109.994 25.9082C107.904 25.9082 106.316 24.2737 106.316 22.185C106.316 20.0964 107.882 18.4619 109.994 18.4619C112.059 18.4619 113.671 20.0964 113.671 22.185C113.671 24.2737 112.059 25.9082 109.994 25.9082Z" fill="black"/>
<path d="M118.215 28.111V11.6973H121.03V28.111H118.215Z" fill="black"/>
<path d="M131.223 23.1405C131.223 25.0248 130.112 25.8194 128.636 25.8194C127.16 25.8194 126.048 25.0248 126.048 23.1632V16.2617H123.188V23.4129C123.188 26.7956 125.662 28.4301 128.613 28.4301C131.587 28.4301 134.085 26.7729 134.085 23.3449V16.2617H131.246V23.1405H131.223Z" fill="black"/>
<path d="M142.984 21.8218L147.502 28.1104H144.459L141.44 23.9331L138.421 28.1104H135.379L137.422 25.2726L139.897 21.8445L137.535 18.6435L135.788 16.2598H138.852L141.44 19.8014L144.006 16.2598H147.093L145.209 18.8252L142.984 21.8218Z" fill="black"/>
</svg>
